<mxfile host="app.diagrams.net" modified="2023-04-30T19:46:22.966Z" agent="Mozilla/5.0 (Windows NT 10.0; Win64; x64) AppleWebKit/537.36 (KHTML, like Gecko) Chrome/112.0.0.0 Safari/537.36" etag="yLI9PBNh-xeLe0Fbd7b9" version="21.2.3" type="device">
  <diagram id="C5RBs43oDa-KdzZeNtuy" name="Page-1">
    <mxGraphModel dx="4175" dy="2761" grid="1" gridSize="10" guides="1" tooltips="1" connect="1" arrows="1" fold="1" page="1" pageScale="1" pageWidth="827" pageHeight="1169" math="0" shadow="0">
      <root>
        <mxCell id="WIyWlLk6GJQsqaUBKTNV-0" />
        <mxCell id="WIyWlLk6GJQsqaUBKTNV-1" parent="WIyWlLk6GJQsqaUBKTNV-0" />
        <mxCell id="dfQ5vr2KlKe60jf83hE6-34" value="" style="rounded=0;whiteSpace=wrap;html=1;fillColor=#dae8fc;strokeColor=#6c8ebf;" parent="WIyWlLk6GJQsqaUBKTNV-1" vertex="1">
          <mxGeometry x="-165" y="-470" width="1220" height="720" as="geometry" />
        </mxCell>
        <mxCell id="n-YLbALkxdfo_zPKDHEP-65" value="" style="rounded=0;whiteSpace=wrap;html=1;fillColor=#e1d5e7;strokeColor=#9673a6;" parent="WIyWlLk6GJQsqaUBKTNV-1" vertex="1">
          <mxGeometry x="-60" y="310" width="1250" height="990" as="geometry" />
        </mxCell>
        <mxCell id="zkfFHV4jXpPFQw0GAbJ--0" value="Profesor" style="swimlane;fontStyle=1;align=center;verticalAlign=top;childLayout=stackLayout;horizontal=1;startSize=26;horizontalStack=0;resizeParent=1;resizeLast=0;collapsible=1;marginBottom=0;rounded=0;shadow=0;strokeWidth=1;" parent="WIyWlLk6GJQsqaUBKTNV-1" vertex="1">
          <mxGeometry x="740" y="-340" width="170" height="190" as="geometry">
            <mxRectangle x="230" y="140" width="160" height="26" as="alternateBounds" />
          </mxGeometry>
        </mxCell>
        <mxCell id="zkfFHV4jXpPFQw0GAbJ--1" value="- nombre: string&#xa;" style="text;align=left;verticalAlign=top;spacingLeft=4;spacingRight=4;overflow=hidden;rotatable=0;points=[[0,0.5],[1,0.5]];portConstraint=eastwest;" parent="zkfFHV4jXpPFQw0GAbJ--0" vertex="1">
          <mxGeometry y="26" width="170" height="26" as="geometry" />
        </mxCell>
        <mxCell id="zkfFHV4jXpPFQw0GAbJ--2" value="- cursos:List&lt;Curso&gt;" style="text;align=left;verticalAlign=top;spacingLeft=4;spacingRight=4;overflow=hidden;rotatable=0;points=[[0,0.5],[1,0.5]];portConstraint=eastwest;rounded=0;shadow=0;html=0;" parent="zkfFHV4jXpPFQw0GAbJ--0" vertex="1">
          <mxGeometry y="52" width="170" height="26" as="geometry" />
        </mxCell>
        <mxCell id="zkfFHV4jXpPFQw0GAbJ--4" value="" style="line;html=1;strokeWidth=1;align=left;verticalAlign=middle;spacingTop=-1;spacingLeft=3;spacingRight=3;rotatable=0;labelPosition=right;points=[];portConstraint=eastwest;" parent="zkfFHV4jXpPFQw0GAbJ--0" vertex="1">
          <mxGeometry y="78" width="170" height="8" as="geometry" />
        </mxCell>
        <mxCell id="dfQ5vr2KlKe60jf83hE6-14" value="+setNombre(nombre: string)" style="text;align=left;verticalAlign=top;spacingLeft=4;spacingRight=4;overflow=hidden;rotatable=0;points=[[0,0.5],[1,0.5]];portConstraint=eastwest;rounded=0;shadow=0;html=0;" parent="zkfFHV4jXpPFQw0GAbJ--0" vertex="1">
          <mxGeometry y="86" width="170" height="26" as="geometry" />
        </mxCell>
        <mxCell id="dfQ5vr2KlKe60jf83hE6-15" value="+getNombre(): String" style="text;align=left;verticalAlign=top;spacingLeft=4;spacingRight=4;overflow=hidden;rotatable=0;points=[[0,0.5],[1,0.5]];portConstraint=eastwest;rounded=0;shadow=0;html=0;" parent="zkfFHV4jXpPFQw0GAbJ--0" vertex="1">
          <mxGeometry y="112" width="170" height="26" as="geometry" />
        </mxCell>
        <mxCell id="dfQ5vr2KlKe60jf83hE6-16" value="+setCursos(cursos: string)" style="text;align=left;verticalAlign=top;spacingLeft=4;spacingRight=4;overflow=hidden;rotatable=0;points=[[0,0.5],[1,0.5]];portConstraint=eastwest;rounded=0;shadow=0;html=0;" parent="zkfFHV4jXpPFQw0GAbJ--0" vertex="1">
          <mxGeometry y="138" width="170" height="26" as="geometry" />
        </mxCell>
        <mxCell id="dfQ5vr2KlKe60jf83hE6-17" value="+getCursos(): String" style="text;align=left;verticalAlign=top;spacingLeft=4;spacingRight=4;overflow=hidden;rotatable=0;points=[[0,0.5],[1,0.5]];portConstraint=eastwest;rounded=0;shadow=0;html=0;" parent="zkfFHV4jXpPFQw0GAbJ--0" vertex="1">
          <mxGeometry y="164" width="170" height="26" as="geometry" />
        </mxCell>
        <mxCell id="zkfFHV4jXpPFQw0GAbJ--6" value="Estudiante" style="swimlane;fontStyle=1;align=center;verticalAlign=top;childLayout=stackLayout;horizontal=1;startSize=26;horizontalStack=0;resizeParent=1;resizeLast=0;collapsible=1;marginBottom=0;rounded=0;shadow=0;strokeWidth=1;" parent="WIyWlLk6GJQsqaUBKTNV-1" vertex="1">
          <mxGeometry x="40" y="-330" width="240" height="294" as="geometry">
            <mxRectangle x="130" y="380" width="160" height="26" as="alternateBounds" />
          </mxGeometry>
        </mxCell>
        <mxCell id="zkfFHV4jXpPFQw0GAbJ--7" value="- cursos:List&lt;Curso&gt;" style="text;align=left;verticalAlign=top;spacingLeft=4;spacingRight=4;overflow=hidden;rotatable=0;points=[[0,0.5],[1,0.5]];portConstraint=eastwest;" parent="zkfFHV4jXpPFQw0GAbJ--6" vertex="1">
          <mxGeometry y="26" width="240" height="26" as="geometry" />
        </mxCell>
        <mxCell id="FOF1XSmfGurnGoWXkGHU-1" value="- nombre: String" style="text;align=left;verticalAlign=top;spacingLeft=4;spacingRight=4;overflow=hidden;rotatable=0;points=[[0,0.5],[1,0.5]];portConstraint=eastwest;" parent="zkfFHV4jXpPFQw0GAbJ--6" vertex="1">
          <mxGeometry y="52" width="240" height="26" as="geometry" />
        </mxCell>
        <mxCell id="n-YLbALkxdfo_zPKDHEP-37" value="- codigo : String" style="text;align=left;verticalAlign=top;spacingLeft=4;spacingRight=4;overflow=hidden;rotatable=0;points=[[0,0.5],[1,0.5]];portConstraint=eastwest;" parent="zkfFHV4jXpPFQw0GAbJ--6" vertex="1">
          <mxGeometry y="78" width="240" height="26" as="geometry" />
        </mxCell>
        <mxCell id="n-YLbALkxdfo_zPKDHEP-38" value="- nombre: String" style="text;align=left;verticalAlign=top;spacingLeft=4;spacingRight=4;overflow=hidden;rotatable=0;points=[[0,0.5],[1,0.5]];portConstraint=eastwest;" parent="zkfFHV4jXpPFQw0GAbJ--6" vertex="1">
          <mxGeometry y="104" width="240" height="26" as="geometry" />
        </mxCell>
        <mxCell id="zkfFHV4jXpPFQw0GAbJ--9" value="" style="line;html=1;strokeWidth=1;align=left;verticalAlign=middle;spacingTop=-1;spacingLeft=3;spacingRight=3;rotatable=0;labelPosition=right;points=[];portConstraint=eastwest;" parent="zkfFHV4jXpPFQw0GAbJ--6" vertex="1">
          <mxGeometry y="130" width="240" height="8" as="geometry" />
        </mxCell>
        <mxCell id="dfQ5vr2KlKe60jf83hE6-31" value="+ getCursos(): List&amp;lt;&amp;gt;" style="text;strokeColor=none;fillColor=none;align=left;verticalAlign=top;spacingLeft=4;spacingRight=4;overflow=hidden;rotatable=0;points=[[0,0.5],[1,0.5]];portConstraint=eastwest;whiteSpace=wrap;html=1;" parent="zkfFHV4jXpPFQw0GAbJ--6" vertex="1">
          <mxGeometry y="138" width="240" height="26" as="geometry" />
        </mxCell>
        <mxCell id="dfQ5vr2KlKe60jf83hE6-30" value="+ setCursos(curso:List&amp;lt;&amp;gt;):" style="text;strokeColor=none;fillColor=none;align=left;verticalAlign=top;spacingLeft=4;spacingRight=4;overflow=hidden;rotatable=0;points=[[0,0.5],[1,0.5]];portConstraint=eastwest;whiteSpace=wrap;html=1;" parent="zkfFHV4jXpPFQw0GAbJ--6" vertex="1">
          <mxGeometry y="164" width="240" height="26" as="geometry" />
        </mxCell>
        <mxCell id="dfQ5vr2KlKe60jf83hE6-28" value="+ setCodigo(codigo:string)" style="text;strokeColor=none;fillColor=none;align=left;verticalAlign=top;spacingLeft=4;spacingRight=4;overflow=hidden;rotatable=0;points=[[0,0.5],[1,0.5]];portConstraint=eastwest;whiteSpace=wrap;html=1;" parent="zkfFHV4jXpPFQw0GAbJ--6" vertex="1">
          <mxGeometry y="190" width="240" height="26" as="geometry" />
        </mxCell>
        <mxCell id="dfQ5vr2KlKe60jf83hE6-29" value="+ getCodigo(): string" style="text;strokeColor=none;fillColor=none;align=left;verticalAlign=top;spacingLeft=4;spacingRight=4;overflow=hidden;rotatable=0;points=[[0,0.5],[1,0.5]];portConstraint=eastwest;whiteSpace=wrap;html=1;" parent="zkfFHV4jXpPFQw0GAbJ--6" vertex="1">
          <mxGeometry y="216" width="240" height="26" as="geometry" />
        </mxCell>
        <mxCell id="dfQ5vr2KlKe60jf83hE6-32" value="+ setNombre(nombre:string)" style="text;strokeColor=none;fillColor=none;align=left;verticalAlign=top;spacingLeft=4;spacingRight=4;overflow=hidden;rotatable=0;points=[[0,0.5],[1,0.5]];portConstraint=eastwest;whiteSpace=wrap;html=1;" parent="zkfFHV4jXpPFQw0GAbJ--6" vertex="1">
          <mxGeometry y="242" width="240" height="26" as="geometry" />
        </mxCell>
        <mxCell id="dfQ5vr2KlKe60jf83hE6-33" value="+ getNombre(): string" style="text;strokeColor=none;fillColor=none;align=left;verticalAlign=top;spacingLeft=4;spacingRight=4;overflow=hidden;rotatable=0;points=[[0,0.5],[1,0.5]];portConstraint=eastwest;whiteSpace=wrap;html=1;" parent="zkfFHV4jXpPFQw0GAbJ--6" vertex="1">
          <mxGeometry y="268" width="240" height="26" as="geometry" />
        </mxCell>
        <mxCell id="n-YLbALkxdfo_zPKDHEP-0" value="Curso" style="swimlane;fontStyle=1;align=center;verticalAlign=top;childLayout=stackLayout;horizontal=1;startSize=26;horizontalStack=0;resizeParent=1;resizeParentMax=0;resizeLast=0;collapsible=1;marginBottom=0;whiteSpace=wrap;html=1;" parent="WIyWlLk6GJQsqaUBKTNV-1" vertex="1">
          <mxGeometry x="325" y="-250" width="255" height="424" as="geometry" />
        </mxCell>
        <mxCell id="n-YLbALkxdfo_zPKDHEP-1" value="&lt;font style=&quot;vertical-align: inherit;&quot;&gt;&lt;font style=&quot;vertical-align: inherit;&quot;&gt;&lt;font style=&quot;vertical-align: inherit;&quot;&gt;&lt;font style=&quot;vertical-align: inherit;&quot;&gt;- estudiante: Estudiante[30]&lt;/font&gt;&lt;/font&gt;&lt;/font&gt;&lt;/font&gt;" style="text;strokeColor=none;fillColor=none;align=left;verticalAlign=top;spacingLeft=4;spacingRight=4;overflow=hidden;rotatable=0;points=[[0,0.5],[1,0.5]];portConstraint=eastwest;whiteSpace=wrap;html=1;" parent="n-YLbALkxdfo_zPKDHEP-0" vertex="1">
          <mxGeometry y="26" width="255" height="26" as="geometry" />
        </mxCell>
        <mxCell id="n-YLbALkxdfo_zPKDHEP-39" value="&lt;font style=&quot;vertical-align: inherit;&quot;&gt;&lt;font style=&quot;vertical-align: inherit;&quot;&gt;&lt;font style=&quot;vertical-align: inherit;&quot;&gt;&lt;font style=&quot;vertical-align: inherit;&quot;&gt;- codigo: string&lt;/font&gt;&lt;/font&gt;&lt;/font&gt;&lt;/font&gt;" style="text;strokeColor=none;fillColor=none;align=left;verticalAlign=top;spacingLeft=4;spacingRight=4;overflow=hidden;rotatable=0;points=[[0,0.5],[1,0.5]];portConstraint=eastwest;whiteSpace=wrap;html=1;" parent="n-YLbALkxdfo_zPKDHEP-0" vertex="1">
          <mxGeometry y="52" width="255" height="26" as="geometry" />
        </mxCell>
        <mxCell id="n-YLbALkxdfo_zPKDHEP-40" value="&lt;font style=&quot;vertical-align: inherit;&quot;&gt;&lt;font style=&quot;vertical-align: inherit;&quot;&gt;&lt;font style=&quot;vertical-align: inherit;&quot;&gt;&lt;font style=&quot;vertical-align: inherit;&quot;&gt;- creditos: interger&lt;/font&gt;&lt;/font&gt;&lt;/font&gt;&lt;/font&gt;" style="text;strokeColor=none;fillColor=none;align=left;verticalAlign=top;spacingLeft=4;spacingRight=4;overflow=hidden;rotatable=0;points=[[0,0.5],[1,0.5]];portConstraint=eastwest;whiteSpace=wrap;html=1;" parent="n-YLbALkxdfo_zPKDHEP-0" vertex="1">
          <mxGeometry y="78" width="255" height="26" as="geometry" />
        </mxCell>
        <mxCell id="n-YLbALkxdfo_zPKDHEP-41" value="&lt;font style=&quot;vertical-align: inherit;&quot;&gt;&lt;font style=&quot;vertical-align: inherit;&quot;&gt;&lt;font style=&quot;vertical-align: inherit;&quot;&gt;&lt;font style=&quot;vertical-align: inherit;&quot;&gt;- profesores: profesor[2]&lt;/font&gt;&lt;/font&gt;&lt;/font&gt;&lt;/font&gt;" style="text;strokeColor=none;fillColor=none;align=left;verticalAlign=top;spacingLeft=4;spacingRight=4;overflow=hidden;rotatable=0;points=[[0,0.5],[1,0.5]];portConstraint=eastwest;whiteSpace=wrap;html=1;" parent="n-YLbALkxdfo_zPKDHEP-0" vertex="1">
          <mxGeometry y="104" width="255" height="26" as="geometry" />
        </mxCell>
        <mxCell id="n-YLbALkxdfo_zPKDHEP-42" value="&lt;font style=&quot;vertical-align: inherit;&quot;&gt;&lt;font style=&quot;vertical-align: inherit;&quot;&gt;&lt;font style=&quot;vertical-align: inherit;&quot;&gt;&lt;font style=&quot;vertical-align: inherit;&quot;&gt;- nombre: String&lt;/font&gt;&lt;/font&gt;&lt;/font&gt;&lt;/font&gt;" style="text;strokeColor=none;fillColor=none;align=left;verticalAlign=top;spacingLeft=4;spacingRight=4;overflow=hidden;rotatable=0;points=[[0,0.5],[1,0.5]];portConstraint=eastwest;whiteSpace=wrap;html=1;" parent="n-YLbALkxdfo_zPKDHEP-0" vertex="1">
          <mxGeometry y="130" width="255" height="26" as="geometry" />
        </mxCell>
        <mxCell id="n-YLbALkxdfo_zPKDHEP-2" value="" style="line;strokeWidth=1;fillColor=none;align=left;verticalAlign=middle;spacingTop=-1;spacingLeft=3;spacingRight=3;rotatable=0;labelPosition=right;points=[];portConstraint=eastwest;strokeColor=inherit;" parent="n-YLbALkxdfo_zPKDHEP-0" vertex="1">
          <mxGeometry y="156" width="255" height="8" as="geometry" />
        </mxCell>
        <mxCell id="n-YLbALkxdfo_zPKDHEP-3" value="+ setEstudiantes(estudiantes:Array)" style="text;strokeColor=none;fillColor=none;align=left;verticalAlign=top;spacingLeft=4;spacingRight=4;overflow=hidden;rotatable=0;points=[[0,0.5],[1,0.5]];portConstraint=eastwest;whiteSpace=wrap;html=1;" parent="n-YLbALkxdfo_zPKDHEP-0" vertex="1">
          <mxGeometry y="164" width="255" height="26" as="geometry" />
        </mxCell>
        <mxCell id="dfQ5vr2KlKe60jf83hE6-19" value="+ getEstudiantes():Array" style="text;strokeColor=none;fillColor=none;align=left;verticalAlign=top;spacingLeft=4;spacingRight=4;overflow=hidden;rotatable=0;points=[[0,0.5],[1,0.5]];portConstraint=eastwest;whiteSpace=wrap;html=1;" parent="n-YLbALkxdfo_zPKDHEP-0" vertex="1">
          <mxGeometry y="190" width="255" height="26" as="geometry" />
        </mxCell>
        <mxCell id="dfQ5vr2KlKe60jf83hE6-20" value="+ getCodigo(): string" style="text;strokeColor=none;fillColor=none;align=left;verticalAlign=top;spacingLeft=4;spacingRight=4;overflow=hidden;rotatable=0;points=[[0,0.5],[1,0.5]];portConstraint=eastwest;whiteSpace=wrap;html=1;" parent="n-YLbALkxdfo_zPKDHEP-0" vertex="1">
          <mxGeometry y="216" width="255" height="26" as="geometry" />
        </mxCell>
        <mxCell id="dfQ5vr2KlKe60jf83hE6-21" value="+ setCodigo(codigo:String)" style="text;strokeColor=none;fillColor=none;align=left;verticalAlign=top;spacingLeft=4;spacingRight=4;overflow=hidden;rotatable=0;points=[[0,0.5],[1,0.5]];portConstraint=eastwest;whiteSpace=wrap;html=1;" parent="n-YLbALkxdfo_zPKDHEP-0" vertex="1">
          <mxGeometry y="242" width="255" height="26" as="geometry" />
        </mxCell>
        <mxCell id="dfQ5vr2KlKe60jf83hE6-23" value="+ setCreditos(creditos:Integer)" style="text;strokeColor=none;fillColor=none;align=left;verticalAlign=top;spacingLeft=4;spacingRight=4;overflow=hidden;rotatable=0;points=[[0,0.5],[1,0.5]];portConstraint=eastwest;whiteSpace=wrap;html=1;" parent="n-YLbALkxdfo_zPKDHEP-0" vertex="1">
          <mxGeometry y="268" width="255" height="26" as="geometry" />
        </mxCell>
        <mxCell id="dfQ5vr2KlKe60jf83hE6-22" value="+ setCreditos(): Integer" style="text;strokeColor=none;fillColor=none;align=left;verticalAlign=top;spacingLeft=4;spacingRight=4;overflow=hidden;rotatable=0;points=[[0,0.5],[1,0.5]];portConstraint=eastwest;whiteSpace=wrap;html=1;" parent="n-YLbALkxdfo_zPKDHEP-0" vertex="1">
          <mxGeometry y="294" width="255" height="26" as="geometry" />
        </mxCell>
        <mxCell id="dfQ5vr2KlKe60jf83hE6-24" value="+ setProfesores(profesores:Array)" style="text;strokeColor=none;fillColor=none;align=left;verticalAlign=top;spacingLeft=4;spacingRight=4;overflow=hidden;rotatable=0;points=[[0,0.5],[1,0.5]];portConstraint=eastwest;whiteSpace=wrap;html=1;" parent="n-YLbALkxdfo_zPKDHEP-0" vertex="1">
          <mxGeometry y="320" width="255" height="26" as="geometry" />
        </mxCell>
        <mxCell id="dfQ5vr2KlKe60jf83hE6-25" value="+ getProfesores(): Array" style="text;strokeColor=none;fillColor=none;align=left;verticalAlign=top;spacingLeft=4;spacingRight=4;overflow=hidden;rotatable=0;points=[[0,0.5],[1,0.5]];portConstraint=eastwest;whiteSpace=wrap;html=1;" parent="n-YLbALkxdfo_zPKDHEP-0" vertex="1">
          <mxGeometry y="346" width="255" height="26" as="geometry" />
        </mxCell>
        <mxCell id="dfQ5vr2KlKe60jf83hE6-26" value="+ setNombre(nombre:string)" style="text;strokeColor=none;fillColor=none;align=left;verticalAlign=top;spacingLeft=4;spacingRight=4;overflow=hidden;rotatable=0;points=[[0,0.5],[1,0.5]];portConstraint=eastwest;whiteSpace=wrap;html=1;" parent="n-YLbALkxdfo_zPKDHEP-0" vertex="1">
          <mxGeometry y="372" width="255" height="26" as="geometry" />
        </mxCell>
        <mxCell id="dfQ5vr2KlKe60jf83hE6-27" value="+ getNombre(): string" style="text;strokeColor=none;fillColor=none;align=left;verticalAlign=top;spacingLeft=4;spacingRight=4;overflow=hidden;rotatable=0;points=[[0,0.5],[1,0.5]];portConstraint=eastwest;whiteSpace=wrap;html=1;" parent="n-YLbALkxdfo_zPKDHEP-0" vertex="1">
          <mxGeometry y="398" width="255" height="26" as="geometry" />
        </mxCell>
        <mxCell id="n-YLbALkxdfo_zPKDHEP-4" value="Estudiante" style="rounded=0;whiteSpace=wrap;html=1;" parent="WIyWlLk6GJQsqaUBKTNV-1" vertex="1">
          <mxGeometry x="1261" y="-183" width="120" height="60" as="geometry" />
        </mxCell>
        <mxCell id="n-YLbALkxdfo_zPKDHEP-5" value="Curso" style="rounded=0;whiteSpace=wrap;html=1;" parent="WIyWlLk6GJQsqaUBKTNV-1" vertex="1">
          <mxGeometry x="1441" y="-123" width="120" height="60" as="geometry" />
        </mxCell>
        <mxCell id="n-YLbALkxdfo_zPKDHEP-6" value="Profesor" style="rounded=0;whiteSpace=wrap;html=1;" parent="WIyWlLk6GJQsqaUBKTNV-1" vertex="1">
          <mxGeometry x="1661" y="-60" width="120" height="60" as="geometry" />
        </mxCell>
        <mxCell id="n-YLbALkxdfo_zPKDHEP-7" value="tiene" style="endArrow=none;html=1;rounded=0;exitX=0.997;exitY=0.335;exitDx=0;exitDy=0;exitPerimeter=0;entryX=0.33;entryY=0.025;entryDx=0;entryDy=0;entryPerimeter=0;" parent="WIyWlLk6GJQsqaUBKTNV-1" source="n-YLbALkxdfo_zPKDHEP-4" target="n-YLbALkxdfo_zPKDHEP-5" edge="1">
          <mxGeometry width="50" height="50" relative="1" as="geometry">
            <mxPoint x="1421" y="-123" as="sourcePoint" />
            <mxPoint x="1481" y="-133" as="targetPoint" />
            <Array as="points">
              <mxPoint x="1481" y="-163" />
            </Array>
          </mxGeometry>
        </mxCell>
        <mxCell id="n-YLbALkxdfo_zPKDHEP-8" value="1.30" style="text;html=1;align=center;verticalAlign=middle;resizable=0;points=[];autosize=1;strokeColor=none;fillColor=none;" parent="WIyWlLk6GJQsqaUBKTNV-1" vertex="1">
          <mxGeometry x="1376" y="-195" width="50" height="30" as="geometry" />
        </mxCell>
        <mxCell id="n-YLbALkxdfo_zPKDHEP-10" value="" style="endArrow=none;html=1;rounded=0;exitX=-0.009;exitY=0.674;exitDx=0;exitDy=0;exitPerimeter=0;" parent="WIyWlLk6GJQsqaUBKTNV-1" edge="1">
          <mxGeometry width="50" height="50" relative="1" as="geometry">
            <mxPoint x="1659.9199999999998" y="-12.560000000000173" as="sourcePoint" />
            <mxPoint x="1341" y="-123" as="targetPoint" />
            <Array as="points">
              <mxPoint x="1341" y="-13" />
            </Array>
          </mxGeometry>
        </mxCell>
        <mxCell id="n-YLbALkxdfo_zPKDHEP-11" value="1.6" style="text;html=1;align=center;verticalAlign=middle;resizable=0;points=[];autosize=1;strokeColor=none;fillColor=none;" parent="WIyWlLk6GJQsqaUBKTNV-1" vertex="1">
          <mxGeometry x="1481" y="-155" width="40" height="30" as="geometry" />
        </mxCell>
        <mxCell id="n-YLbALkxdfo_zPKDHEP-12" value="EJEMPLOS DE RELACIONES(DIAGRAMA DE ENTIDAD)" style="text;html=1;align=center;verticalAlign=middle;resizable=0;points=[];autosize=1;strokeColor=none;fillColor=none;" parent="WIyWlLk6GJQsqaUBKTNV-1" vertex="1">
          <mxGeometry x="1241" y="-235" width="340" height="30" as="geometry" />
        </mxCell>
        <mxCell id="n-YLbALkxdfo_zPKDHEP-15" value="" style="endArrow=classic;html=1;rounded=0;" parent="WIyWlLk6GJQsqaUBKTNV-1" edge="1">
          <mxGeometry width="50" height="50" relative="1" as="geometry">
            <mxPoint x="1561" y="-185" as="sourcePoint" />
            <mxPoint x="1491" y="-173" as="targetPoint" />
          </mxGeometry>
        </mxCell>
        <mxCell id="n-YLbALkxdfo_zPKDHEP-16" value="" style="endArrow=none;html=1;rounded=0;exitX=1;exitY=0.5;exitDx=0;exitDy=0;entryX=0.333;entryY=0;entryDx=0;entryDy=0;entryPerimeter=0;" parent="WIyWlLk6GJQsqaUBKTNV-1" source="n-YLbALkxdfo_zPKDHEP-5" edge="1">
          <mxGeometry width="50" height="50" relative="1" as="geometry">
            <mxPoint x="1591" y="-83" as="sourcePoint" />
            <mxPoint x="1700.96" y="-53" as="targetPoint" />
            <Array as="points">
              <mxPoint x="1701" y="-93" />
            </Array>
          </mxGeometry>
        </mxCell>
        <mxCell id="n-YLbALkxdfo_zPKDHEP-17" value="dictado" style="edgeLabel;html=1;align=center;verticalAlign=middle;resizable=0;points=[];" parent="n-YLbALkxdfo_zPKDHEP-16" vertex="1" connectable="0">
          <mxGeometry x="0.1065" relative="1" as="geometry">
            <mxPoint as="offset" />
          </mxGeometry>
        </mxCell>
        <mxCell id="n-YLbALkxdfo_zPKDHEP-18" value="0.*" style="text;html=1;align=center;verticalAlign=middle;resizable=0;points=[];autosize=1;strokeColor=none;fillColor=none;" parent="WIyWlLk6GJQsqaUBKTNV-1" vertex="1">
          <mxGeometry x="1566" y="-123" width="40" height="30" as="geometry" />
        </mxCell>
        <mxCell id="n-YLbALkxdfo_zPKDHEP-19" value="1.2" style="text;html=1;align=center;verticalAlign=middle;resizable=0;points=[];autosize=1;strokeColor=none;fillColor=none;" parent="WIyWlLk6GJQsqaUBKTNV-1" vertex="1">
          <mxGeometry x="1701" y="-83" width="40" height="30" as="geometry" />
        </mxCell>
        <mxCell id="n-YLbALkxdfo_zPKDHEP-21" value="la multiplixidad depende del contexta del que se crea" style="text;html=1;align=center;verticalAlign=middle;resizable=0;points=[];autosize=1;strokeColor=none;fillColor=none;" parent="WIyWlLk6GJQsqaUBKTNV-1" vertex="1">
          <mxGeometry x="1561" y="-183" width="310" height="30" as="geometry" />
        </mxCell>
        <mxCell id="n-YLbALkxdfo_zPKDHEP-25" value="" style="endArrow=classic;html=1;rounded=0;exitX=0.005;exitY=0.92;exitDx=0;exitDy=0;exitPerimeter=0;" parent="WIyWlLk6GJQsqaUBKTNV-1" edge="1">
          <mxGeometry width="50" height="50" relative="1" as="geometry">
            <mxPoint x="1642.55" y="-137.39999999999986" as="sourcePoint" />
            <mxPoint x="1611" y="-123" as="targetPoint" />
          </mxGeometry>
        </mxCell>
        <mxCell id="n-YLbALkxdfo_zPKDHEP-29" value="&lt;font style=&quot;vertical-align: inherit;&quot;&gt;&lt;font style=&quot;vertical-align: inherit;&quot;&gt;1.30&lt;/font&gt;&lt;/font&gt;" style="text;html=1;align=center;verticalAlign=middle;resizable=0;points=[];autosize=1;strokeColor=none;fillColor=none;" parent="WIyWlLk6GJQsqaUBKTNV-1" vertex="1">
          <mxGeometry x="280" y="-298" width="50" height="30" as="geometry" />
        </mxCell>
        <mxCell id="n-YLbALkxdfo_zPKDHEP-30" value="" style="endArrow=none;html=1;rounded=0;exitX=0.999;exitY=-0.028;exitDx=0;exitDy=0;exitPerimeter=0;" parent="WIyWlLk6GJQsqaUBKTNV-1" source="n-YLbALkxdfo_zPKDHEP-37" edge="1">
          <mxGeometry width="50" height="50" relative="1" as="geometry">
            <mxPoint x="360" y="-138" as="sourcePoint" />
            <mxPoint x="390" y="-248" as="targetPoint" />
            <Array as="points">
              <mxPoint x="390" y="-278" />
            </Array>
          </mxGeometry>
        </mxCell>
        <mxCell id="n-YLbALkxdfo_zPKDHEP-31" value="&lt;font style=&quot;vertical-align: inherit;&quot;&gt;&lt;font style=&quot;vertical-align: inherit;&quot;&gt;tiene&lt;/font&gt;&lt;/font&gt;" style="edgeLabel;html=1;align=center;verticalAlign=middle;resizable=0;points=[];" parent="n-YLbALkxdfo_zPKDHEP-30" vertex="1" connectable="0">
          <mxGeometry x="0.1932" y="-1" relative="1" as="geometry">
            <mxPoint as="offset" />
          </mxGeometry>
        </mxCell>
        <mxCell id="n-YLbALkxdfo_zPKDHEP-32" value="&lt;font style=&quot;vertical-align: inherit;&quot;&gt;&lt;font style=&quot;vertical-align: inherit;&quot;&gt;1 . *&lt;/font&gt;&lt;/font&gt;" style="text;html=1;align=center;verticalAlign=middle;resizable=0;points=[];autosize=1;strokeColor=none;fillColor=none;" parent="WIyWlLk6GJQsqaUBKTNV-1" vertex="1">
          <mxGeometry x="400" y="-280" width="40" height="30" as="geometry" />
        </mxCell>
        <mxCell id="n-YLbALkxdfo_zPKDHEP-33" value="" style="endArrow=none;html=1;rounded=0;entryX=1.021;entryY=1.078;entryDx=0;entryDy=0;entryPerimeter=0;" parent="WIyWlLk6GJQsqaUBKTNV-1" target="n-YLbALkxdfo_zPKDHEP-36" edge="1">
          <mxGeometry width="50" height="50" relative="1" as="geometry">
            <mxPoint x="580" y="-238" as="sourcePoint" />
            <mxPoint x="630" y="-158" as="targetPoint" />
            <Array as="points">
              <mxPoint x="620" y="-238" />
              <mxPoint x="620" y="-298" />
            </Array>
          </mxGeometry>
        </mxCell>
        <mxCell id="n-YLbALkxdfo_zPKDHEP-35" value="&lt;font style=&quot;vertical-align: inherit;&quot;&gt;&lt;font style=&quot;vertical-align: inherit;&quot;&gt;dictado&lt;/font&gt;&lt;/font&gt;" style="edgeLabel;html=1;align=center;verticalAlign=middle;resizable=0;points=[];" parent="n-YLbALkxdfo_zPKDHEP-33" vertex="1" connectable="0">
          <mxGeometry x="-0.1878" y="2" relative="1" as="geometry">
            <mxPoint as="offset" />
          </mxGeometry>
        </mxCell>
        <mxCell id="n-YLbALkxdfo_zPKDHEP-34" value="&lt;font style=&quot;vertical-align: inherit;&quot;&gt;&lt;font style=&quot;vertical-align: inherit;&quot;&gt;0.*&lt;/font&gt;&lt;/font&gt;" style="text;html=1;align=center;verticalAlign=middle;resizable=0;points=[];autosize=1;strokeColor=none;fillColor=none;" parent="WIyWlLk6GJQsqaUBKTNV-1" vertex="1">
          <mxGeometry x="580" y="-275" width="40" height="30" as="geometry" />
        </mxCell>
        <mxCell id="n-YLbALkxdfo_zPKDHEP-36" value="&lt;font style=&quot;vertical-align: inherit;&quot;&gt;&lt;font style=&quot;vertical-align: inherit;&quot;&gt;1.2&lt;/font&gt;&lt;/font&gt;" style="text;html=1;align=center;verticalAlign=middle;resizable=0;points=[];autosize=1;strokeColor=none;fillColor=none;" parent="WIyWlLk6GJQsqaUBKTNV-1" vertex="1">
          <mxGeometry x="700" y="-330" width="40" height="30" as="geometry" />
        </mxCell>
        <mxCell id="n-YLbALkxdfo_zPKDHEP-43" value="GestorDeCursos" style="swimlane;fontStyle=1;align=center;verticalAlign=top;childLayout=stackLayout;horizontal=1;startSize=26;horizontalStack=0;resizeParent=1;resizeParentMax=0;resizeLast=0;collapsible=1;marginBottom=0;whiteSpace=wrap;html=1;" parent="WIyWlLk6GJQsqaUBKTNV-1" vertex="1">
          <mxGeometry x="-10" y="348" width="230" height="450" as="geometry" />
        </mxCell>
        <mxCell id="n-YLbALkxdfo_zPKDHEP-44" value="-ListaCursos:List&amp;lt;Cursos&amp;gt;" style="text;strokeColor=none;fillColor=none;align=left;verticalAlign=top;spacingLeft=4;spacingRight=4;overflow=hidden;rotatable=0;points=[[0,0.5],[1,0.5]];portConstraint=eastwest;whiteSpace=wrap;html=1;" parent="n-YLbALkxdfo_zPKDHEP-43" vertex="1">
          <mxGeometry y="26" width="230" height="26" as="geometry" />
        </mxCell>
        <mxCell id="n-YLbALkxdfo_zPKDHEP-73" value="-btnBuscar: JButton" style="text;strokeColor=none;fillColor=none;align=left;verticalAlign=top;spacingLeft=4;spacingRight=4;overflow=hidden;rotatable=0;points=[[0,0.5],[1,0.5]];portConstraint=eastwest;whiteSpace=wrap;html=1;" parent="n-YLbALkxdfo_zPKDHEP-43" vertex="1">
          <mxGeometry y="52" width="230" height="26" as="geometry" />
        </mxCell>
        <mxCell id="n-YLbALkxdfo_zPKDHEP-74" value="-bntAgrear: JButton" style="text;strokeColor=none;fillColor=none;align=left;verticalAlign=top;spacingLeft=4;spacingRight=4;overflow=hidden;rotatable=0;points=[[0,0.5],[1,0.5]];portConstraint=eastwest;whiteSpace=wrap;html=1;" parent="n-YLbALkxdfo_zPKDHEP-43" vertex="1">
          <mxGeometry y="78" width="230" height="26" as="geometry" />
        </mxCell>
        <mxCell id="n-YLbALkxdfo_zPKDHEP-75" value="-btnEliminar: JButton" style="text;strokeColor=none;fillColor=none;align=left;verticalAlign=top;spacingLeft=4;spacingRight=4;overflow=hidden;rotatable=0;points=[[0,0.5],[1,0.5]];portConstraint=eastwest;whiteSpace=wrap;html=1;" parent="n-YLbALkxdfo_zPKDHEP-43" vertex="1">
          <mxGeometry y="104" width="230" height="26" as="geometry" />
        </mxCell>
        <mxCell id="n-YLbALkxdfo_zPKDHEP-76" value="-btnModificar: JButton" style="text;strokeColor=none;fillColor=none;align=left;verticalAlign=top;spacingLeft=4;spacingRight=4;overflow=hidden;rotatable=0;points=[[0,0.5],[1,0.5]];portConstraint=eastwest;whiteSpace=wrap;html=1;" parent="n-YLbALkxdfo_zPKDHEP-43" vertex="1">
          <mxGeometry y="130" width="230" height="26" as="geometry" />
        </mxCell>
        <mxCell id="--uAvpTp4v0zV4zCWOfy-2" value="-btnSalir: JButton" style="text;strokeColor=none;fillColor=none;align=left;verticalAlign=top;spacingLeft=4;spacingRight=4;overflow=hidden;rotatable=0;points=[[0,0.5],[1,0.5]];portConstraint=eastwest;whiteSpace=wrap;html=1;" parent="n-YLbALkxdfo_zPKDHEP-43" vertex="1">
          <mxGeometry y="156" width="230" height="26" as="geometry" />
        </mxCell>
        <mxCell id="n-YLbALkxdfo_zPKDHEP-77" value="-btnVerProfesor: JButton" style="text;strokeColor=none;fillColor=none;align=left;verticalAlign=top;spacingLeft=4;spacingRight=4;overflow=hidden;rotatable=0;points=[[0,0.5],[1,0.5]];portConstraint=eastwest;whiteSpace=wrap;html=1;" parent="n-YLbALkxdfo_zPKDHEP-43" vertex="1">
          <mxGeometry y="182" width="230" height="26" as="geometry" />
        </mxCell>
        <mxCell id="n-YLbALkxdfo_zPKDHEP-78" value="-btnVerEstudiante: JButton" style="text;strokeColor=none;fillColor=none;align=left;verticalAlign=top;spacingLeft=4;spacingRight=4;overflow=hidden;rotatable=0;points=[[0,0.5],[1,0.5]];portConstraint=eastwest;whiteSpace=wrap;html=1;" parent="n-YLbALkxdfo_zPKDHEP-43" vertex="1">
          <mxGeometry y="208" width="230" height="26" as="geometry" />
        </mxCell>
        <mxCell id="--uAvpTp4v0zV4zCWOfy-3" value="-tblListaCurso: JButton" style="text;strokeColor=none;fillColor=none;align=left;verticalAlign=top;spacingLeft=4;spacingRight=4;overflow=hidden;rotatable=0;points=[[0,0.5],[1,0.5]];portConstraint=eastwest;whiteSpace=wrap;html=1;" parent="n-YLbALkxdfo_zPKDHEP-43" vertex="1">
          <mxGeometry y="234" width="230" height="26" as="geometry" />
        </mxCell>
        <mxCell id="--uAvpTp4v0zV4zCWOfy-4" value="-txtBusca : JtextFiled" style="text;strokeColor=none;fillColor=none;align=left;verticalAlign=top;spacingLeft=4;spacingRight=4;overflow=hidden;rotatable=0;points=[[0,0.5],[1,0.5]];portConstraint=eastwest;whiteSpace=wrap;html=1;" parent="n-YLbALkxdfo_zPKDHEP-43" vertex="1">
          <mxGeometry y="260" width="230" height="26" as="geometry" />
        </mxCell>
        <mxCell id="n-YLbALkxdfo_zPKDHEP-45" value="" style="line;strokeWidth=1;fillColor=none;align=left;verticalAlign=middle;spacingTop=-1;spacingLeft=3;spacingRight=3;rotatable=0;labelPosition=right;points=[];portConstraint=eastwest;strokeColor=inherit;" parent="n-YLbALkxdfo_zPKDHEP-43" vertex="1">
          <mxGeometry y="286" width="230" height="8" as="geometry" />
        </mxCell>
        <mxCell id="n-YLbALkxdfo_zPKDHEP-46" value="+buscar(criterio: String):List&amp;lt;Curso&amp;gt;" style="text;strokeColor=none;fillColor=none;align=left;verticalAlign=top;spacingLeft=4;spacingRight=4;overflow=hidden;rotatable=0;points=[[0,0.5],[1,0.5]];portConstraint=eastwest;whiteSpace=wrap;html=1;" parent="n-YLbALkxdfo_zPKDHEP-43" vertex="1">
          <mxGeometry y="294" width="230" height="36" as="geometry" />
        </mxCell>
        <mxCell id="n-YLbALkxdfo_zPKDHEP-69" value="+agregar(curso: Curso):void" style="text;strokeColor=none;fillColor=none;align=left;verticalAlign=top;spacingLeft=4;spacingRight=4;overflow=hidden;rotatable=0;points=[[0,0.5],[1,0.5]];portConstraint=eastwest;whiteSpace=wrap;html=1;" parent="n-YLbALkxdfo_zPKDHEP-43" vertex="1">
          <mxGeometry y="330" width="230" height="30" as="geometry" />
        </mxCell>
        <mxCell id="n-YLbALkxdfo_zPKDHEP-70" value="+eliminar(curso: Curso):void" style="text;strokeColor=none;fillColor=none;align=left;verticalAlign=top;spacingLeft=4;spacingRight=4;overflow=hidden;rotatable=0;points=[[0,0.5],[1,0.5]];portConstraint=eastwest;whiteSpace=wrap;html=1;" parent="n-YLbALkxdfo_zPKDHEP-43" vertex="1">
          <mxGeometry y="360" width="230" height="30" as="geometry" />
        </mxCell>
        <mxCell id="n-YLbALkxdfo_zPKDHEP-71" value="+verProfesores(curso:Curso):void" style="text;strokeColor=none;fillColor=none;align=left;verticalAlign=top;spacingLeft=4;spacingRight=4;overflow=hidden;rotatable=0;points=[[0,0.5],[1,0.5]];portConstraint=eastwest;whiteSpace=wrap;html=1;" parent="n-YLbALkxdfo_zPKDHEP-43" vertex="1">
          <mxGeometry y="390" width="230" height="30" as="geometry" />
        </mxCell>
        <mxCell id="n-YLbALkxdfo_zPKDHEP-72" value="+verEstudiantes(curso:Curso):void" style="text;strokeColor=none;fillColor=none;align=left;verticalAlign=top;spacingLeft=4;spacingRight=4;overflow=hidden;rotatable=0;points=[[0,0.5],[1,0.5]];portConstraint=eastwest;whiteSpace=wrap;html=1;" parent="n-YLbALkxdfo_zPKDHEP-43" vertex="1">
          <mxGeometry y="420" width="230" height="30" as="geometry" />
        </mxCell>
        <mxCell id="n-YLbALkxdfo_zPKDHEP-47" value="" style="endArrow=none;html=1;rounded=0;entryX=0.003;entryY=0.055;entryDx=0;entryDy=0;entryPerimeter=0;" parent="WIyWlLk6GJQsqaUBKTNV-1" target="n-YLbALkxdfo_zPKDHEP-42" edge="1">
          <mxGeometry width="50" height="50" relative="1" as="geometry">
            <mxPoint x="200" y="350" as="sourcePoint" />
            <mxPoint x="250" y="300" as="targetPoint" />
            <Array as="points">
              <mxPoint x="200" y="240" />
            </Array>
          </mxGeometry>
        </mxCell>
        <mxCell id="n-YLbALkxdfo_zPKDHEP-48" value="1" style="text;html=1;align=center;verticalAlign=middle;resizable=0;points=[];autosize=1;strokeColor=none;fillColor=none;" parent="WIyWlLk6GJQsqaUBKTNV-1" vertex="1">
          <mxGeometry x="165" y="318" width="30" height="30" as="geometry" />
        </mxCell>
        <mxCell id="n-YLbALkxdfo_zPKDHEP-49" value="0.*" style="text;html=1;align=center;verticalAlign=middle;resizable=0;points=[];autosize=1;strokeColor=none;fillColor=none;" parent="WIyWlLk6GJQsqaUBKTNV-1" vertex="1">
          <mxGeometry x="290" y="-150" width="40" height="30" as="geometry" />
        </mxCell>
        <mxCell id="n-YLbALkxdfo_zPKDHEP-50" value="PantallaProfesores" style="swimlane;fontStyle=1;align=center;verticalAlign=top;childLayout=stackLayout;horizontal=1;startSize=26;horizontalStack=0;resizeParent=1;resizeParentMax=0;resizeLast=0;collapsible=1;marginBottom=0;whiteSpace=wrap;html=1;" parent="WIyWlLk6GJQsqaUBKTNV-1" vertex="1">
          <mxGeometry x="330" y="400" width="230" height="294" as="geometry" />
        </mxCell>
        <mxCell id="n-YLbALkxdfo_zPKDHEP-51" value="- curso:Curso" style="text;strokeColor=none;fillColor=none;align=left;verticalAlign=top;spacingLeft=4;spacingRight=4;overflow=hidden;rotatable=0;points=[[0,0.5],[1,0.5]];portConstraint=eastwest;whiteSpace=wrap;html=1;" parent="n-YLbALkxdfo_zPKDHEP-50" vertex="1">
          <mxGeometry y="26" width="230" height="26" as="geometry" />
        </mxCell>
        <mxCell id="dfQ5vr2KlKe60jf83hE6-7" value="&lt;font style=&quot;vertical-align: inherit;&quot;&gt;&lt;font style=&quot;vertical-align: inherit;&quot;&gt;- lblNombCurso : leabel&lt;/font&gt;&lt;/font&gt;" style="text;strokeColor=none;fillColor=none;align=left;verticalAlign=top;spacingLeft=4;spacingRight=4;overflow=hidden;rotatable=0;points=[[0,0.5],[1,0.5]];portConstraint=eastwest;whiteSpace=wrap;html=1;" parent="n-YLbALkxdfo_zPKDHEP-50" vertex="1">
          <mxGeometry y="52" width="230" height="26" as="geometry" />
        </mxCell>
        <mxCell id="dfQ5vr2KlKe60jf83hE6-8" value="&lt;font style=&quot;vertical-align: inherit;&quot;&gt;&lt;font style=&quot;vertical-align: inherit;&quot;&gt;- btnBuscar : JButton&lt;/font&gt;&lt;/font&gt;" style="text;strokeColor=none;fillColor=none;align=left;verticalAlign=top;spacingLeft=4;spacingRight=4;overflow=hidden;rotatable=0;points=[[0,0.5],[1,0.5]];portConstraint=eastwest;whiteSpace=wrap;html=1;" parent="n-YLbALkxdfo_zPKDHEP-50" vertex="1">
          <mxGeometry y="78" width="230" height="26" as="geometry" />
        </mxCell>
        <mxCell id="dfQ5vr2KlKe60jf83hE6-6" value="&lt;font style=&quot;vertical-align: inherit;&quot;&gt;&lt;font style=&quot;vertical-align: inherit;&quot;&gt;- ListProfe : jList&lt;/font&gt;&lt;/font&gt;" style="text;strokeColor=none;fillColor=none;align=left;verticalAlign=top;spacingLeft=4;spacingRight=4;overflow=hidden;rotatable=0;points=[[0,0.5],[1,0.5]];portConstraint=eastwest;whiteSpace=wrap;html=1;" parent="n-YLbALkxdfo_zPKDHEP-50" vertex="1">
          <mxGeometry y="104" width="230" height="26" as="geometry" />
        </mxCell>
        <mxCell id="dfQ5vr2KlKe60jf83hE6-5" value="&lt;font style=&quot;vertical-align: inherit;&quot;&gt;&lt;font style=&quot;vertical-align: inherit;&quot;&gt;- btnAgregar : JButton&lt;/font&gt;&lt;/font&gt;" style="text;strokeColor=none;fillColor=none;align=left;verticalAlign=top;spacingLeft=4;spacingRight=4;overflow=hidden;rotatable=0;points=[[0,0.5],[1,0.5]];portConstraint=eastwest;whiteSpace=wrap;html=1;" parent="n-YLbALkxdfo_zPKDHEP-50" vertex="1">
          <mxGeometry y="130" width="230" height="26" as="geometry" />
        </mxCell>
        <mxCell id="dfQ5vr2KlKe60jf83hE6-9" value="&lt;font style=&quot;vertical-align: inherit;&quot;&gt;&lt;font style=&quot;vertical-align: inherit;&quot;&gt;&lt;font style=&quot;vertical-align: inherit;&quot;&gt;&lt;font style=&quot;vertical-align: inherit;&quot;&gt;- btnEliminar : JButton&lt;/font&gt;&lt;/font&gt;&lt;/font&gt;&lt;/font&gt;" style="text;strokeColor=none;fillColor=none;align=left;verticalAlign=top;spacingLeft=4;spacingRight=4;overflow=hidden;rotatable=0;points=[[0,0.5],[1,0.5]];portConstraint=eastwest;whiteSpace=wrap;html=1;" parent="n-YLbALkxdfo_zPKDHEP-50" vertex="1">
          <mxGeometry y="156" width="230" height="26" as="geometry" />
        </mxCell>
        <mxCell id="dfQ5vr2KlKe60jf83hE6-4" value="&lt;font style=&quot;vertical-align: inherit;&quot;&gt;&lt;font style=&quot;vertical-align: inherit;&quot;&gt;&lt;font style=&quot;vertical-align: inherit;&quot;&gt;&lt;font style=&quot;vertical-align: inherit;&quot;&gt;- btnCancelar : JButton&lt;/font&gt;&lt;/font&gt;&lt;/font&gt;&lt;/font&gt;" style="text;strokeColor=none;fillColor=none;align=left;verticalAlign=top;spacingLeft=4;spacingRight=4;overflow=hidden;rotatable=0;points=[[0,0.5],[1,0.5]];portConstraint=eastwest;whiteSpace=wrap;html=1;" parent="n-YLbALkxdfo_zPKDHEP-50" vertex="1">
          <mxGeometry y="182" width="230" height="26" as="geometry" />
        </mxCell>
        <mxCell id="n-YLbALkxdfo_zPKDHEP-52" value="" style="line;strokeWidth=1;fillColor=none;align=left;verticalAlign=middle;spacingTop=-1;spacingLeft=3;spacingRight=3;rotatable=0;labelPosition=right;points=[];portConstraint=eastwest;strokeColor=inherit;" parent="n-YLbALkxdfo_zPKDHEP-50" vertex="1">
          <mxGeometry y="208" width="230" height="8" as="geometry" />
        </mxCell>
        <mxCell id="n-YLbALkxdfo_zPKDHEP-53" value="+buscar(criterio): List&amp;lt;Profesor&amp;gt;" style="text;strokeColor=none;fillColor=none;align=left;verticalAlign=top;spacingLeft=4;spacingRight=4;overflow=hidden;rotatable=0;points=[[0,0.5],[1,0.5]];portConstraint=eastwest;whiteSpace=wrap;html=1;" parent="n-YLbALkxdfo_zPKDHEP-50" vertex="1">
          <mxGeometry y="216" width="230" height="26" as="geometry" />
        </mxCell>
        <mxCell id="n-YLbALkxdfo_zPKDHEP-79" value="+agregar(profesor:Profesor):void" style="text;strokeColor=none;fillColor=none;align=left;verticalAlign=top;spacingLeft=4;spacingRight=4;overflow=hidden;rotatable=0;points=[[0,0.5],[1,0.5]];portConstraint=eastwest;whiteSpace=wrap;html=1;" parent="n-YLbALkxdfo_zPKDHEP-50" vertex="1">
          <mxGeometry y="242" width="230" height="26" as="geometry" />
        </mxCell>
        <mxCell id="n-YLbALkxdfo_zPKDHEP-80" value="+eliminar(profesor:Profesor):void" style="text;strokeColor=none;fillColor=none;align=left;verticalAlign=top;spacingLeft=4;spacingRight=4;overflow=hidden;rotatable=0;points=[[0,0.5],[1,0.5]];portConstraint=eastwest;whiteSpace=wrap;html=1;" parent="n-YLbALkxdfo_zPKDHEP-50" vertex="1">
          <mxGeometry y="268" width="230" height="26" as="geometry" />
        </mxCell>
        <mxCell id="n-YLbALkxdfo_zPKDHEP-54" value="PantallaEstudiantes" style="swimlane;fontStyle=1;align=center;verticalAlign=top;childLayout=stackLayout;horizontal=1;startSize=26;horizontalStack=0;resizeParent=1;resizeParentMax=0;resizeLast=0;collapsible=1;marginBottom=0;whiteSpace=wrap;html=1;" parent="WIyWlLk6GJQsqaUBKTNV-1" vertex="1">
          <mxGeometry x="580" y="400" width="200" height="242" as="geometry" />
        </mxCell>
        <mxCell id="n-YLbALkxdfo_zPKDHEP-55" value="-Curso:curso" style="text;strokeColor=none;fillColor=none;align=left;verticalAlign=top;spacingLeft=4;spacingRight=4;overflow=hidden;rotatable=0;points=[[0,0.5],[1,0.5]];portConstraint=eastwest;whiteSpace=wrap;html=1;" parent="n-YLbALkxdfo_zPKDHEP-54" vertex="1">
          <mxGeometry y="26" width="200" height="26" as="geometry" />
        </mxCell>
        <mxCell id="dfQ5vr2KlKe60jf83hE6-0" value="&lt;font style=&quot;vertical-align: inherit;&quot;&gt;&lt;font style=&quot;vertical-align: inherit;&quot;&gt;- txtCodigoEst : jTextFile&lt;/font&gt;&lt;/font&gt;" style="text;strokeColor=none;fillColor=none;align=left;verticalAlign=top;spacingLeft=4;spacingRight=4;overflow=hidden;rotatable=0;points=[[0,0.5],[1,0.5]];portConstraint=eastwest;whiteSpace=wrap;html=1;" parent="n-YLbALkxdfo_zPKDHEP-54" vertex="1">
          <mxGeometry y="52" width="200" height="26" as="geometry" />
        </mxCell>
        <mxCell id="dfQ5vr2KlKe60jf83hE6-1" value="&lt;font style=&quot;vertical-align: inherit;&quot;&gt;&lt;font style=&quot;vertical-align: inherit;&quot;&gt;&lt;font style=&quot;vertical-align: inherit;&quot;&gt;&lt;font style=&quot;vertical-align: inherit;&quot;&gt;- txtNombreEst : jTextFile&lt;/font&gt;&lt;/font&gt;&lt;/font&gt;&lt;/font&gt;" style="text;strokeColor=none;fillColor=none;align=left;verticalAlign=top;spacingLeft=4;spacingRight=4;overflow=hidden;rotatable=0;points=[[0,0.5],[1,0.5]];portConstraint=eastwest;whiteSpace=wrap;html=1;" parent="n-YLbALkxdfo_zPKDHEP-54" vertex="1">
          <mxGeometry y="78" width="200" height="26" as="geometry" />
        </mxCell>
        <mxCell id="dfQ5vr2KlKe60jf83hE6-3" value="&lt;font style=&quot;vertical-align: inherit;&quot;&gt;&lt;font style=&quot;vertical-align: inherit;&quot;&gt;&lt;font style=&quot;vertical-align: inherit;&quot;&gt;&lt;font style=&quot;vertical-align: inherit;&quot;&gt;- btnGuardar :;JButton&lt;/font&gt;&lt;/font&gt;&lt;/font&gt;&lt;/font&gt;" style="text;strokeColor=none;fillColor=none;align=left;verticalAlign=top;spacingLeft=4;spacingRight=4;overflow=hidden;rotatable=0;points=[[0,0.5],[1,0.5]];portConstraint=eastwest;whiteSpace=wrap;html=1;" parent="n-YLbALkxdfo_zPKDHEP-54" vertex="1">
          <mxGeometry y="104" width="200" height="26" as="geometry" />
        </mxCell>
        <mxCell id="dfQ5vr2KlKe60jf83hE6-2" value="&lt;font style=&quot;vertical-align: inherit;&quot;&gt;&lt;font style=&quot;vertical-align: inherit;&quot;&gt;&lt;font style=&quot;vertical-align: inherit;&quot;&gt;&lt;font style=&quot;vertical-align: inherit;&quot;&gt;&lt;font style=&quot;vertical-align: inherit;&quot;&gt;&lt;font style=&quot;vertical-align: inherit;&quot;&gt;- btnCancelar : JButton&lt;/font&gt;&lt;/font&gt;&lt;/font&gt;&lt;/font&gt;&lt;/font&gt;&lt;/font&gt;" style="text;strokeColor=none;fillColor=none;align=left;verticalAlign=top;spacingLeft=4;spacingRight=4;overflow=hidden;rotatable=0;points=[[0,0.5],[1,0.5]];portConstraint=eastwest;whiteSpace=wrap;html=1;" parent="n-YLbALkxdfo_zPKDHEP-54" vertex="1">
          <mxGeometry y="130" width="200" height="26" as="geometry" />
        </mxCell>
        <mxCell id="n-YLbALkxdfo_zPKDHEP-56" value="" style="line;strokeWidth=1;fillColor=none;align=left;verticalAlign=middle;spacingTop=-1;spacingLeft=3;spacingRight=3;rotatable=0;labelPosition=right;points=[];portConstraint=eastwest;strokeColor=inherit;" parent="n-YLbALkxdfo_zPKDHEP-54" vertex="1">
          <mxGeometry y="156" width="200" height="8" as="geometry" />
        </mxCell>
        <mxCell id="n-YLbALkxdfo_zPKDHEP-82" value="+buscar(criterio): List&amp;lt;Estudiante&amp;gt;" style="text;strokeColor=none;fillColor=none;align=left;verticalAlign=top;spacingLeft=4;spacingRight=4;overflow=hidden;rotatable=0;points=[[0,0.5],[1,0.5]];portConstraint=eastwest;whiteSpace=wrap;html=1;" parent="n-YLbALkxdfo_zPKDHEP-54" vertex="1">
          <mxGeometry y="164" width="200" height="26" as="geometry" />
        </mxCell>
        <mxCell id="n-YLbALkxdfo_zPKDHEP-83" value="+agregar(estudiante:Estudiante):void" style="text;strokeColor=none;fillColor=none;align=left;verticalAlign=top;spacingLeft=4;spacingRight=4;overflow=hidden;rotatable=0;points=[[0,0.5],[1,0.5]];portConstraint=eastwest;whiteSpace=wrap;html=1;" parent="n-YLbALkxdfo_zPKDHEP-54" vertex="1">
          <mxGeometry y="190" width="200" height="26" as="geometry" />
        </mxCell>
        <mxCell id="n-YLbALkxdfo_zPKDHEP-84" value="+eliminar(estudiante:Estudiante):void" style="text;strokeColor=none;fillColor=none;align=left;verticalAlign=top;spacingLeft=4;spacingRight=4;overflow=hidden;rotatable=0;points=[[0,0.5],[1,0.5]];portConstraint=eastwest;whiteSpace=wrap;html=1;" parent="n-YLbALkxdfo_zPKDHEP-54" vertex="1">
          <mxGeometry y="216" width="200" height="26" as="geometry" />
        </mxCell>
        <mxCell id="n-YLbALkxdfo_zPKDHEP-58" value="" style="endArrow=none;html=1;rounded=0;exitX=0.44;exitY=0.008;exitDx=0;exitDy=0;exitPerimeter=0;" parent="WIyWlLk6GJQsqaUBKTNV-1" source="n-YLbALkxdfo_zPKDHEP-50" edge="1">
          <mxGeometry width="50" height="50" relative="1" as="geometry">
            <mxPoint x="390" y="350" as="sourcePoint" />
            <mxPoint x="390" y="170" as="targetPoint" />
          </mxGeometry>
        </mxCell>
        <mxCell id="n-YLbALkxdfo_zPKDHEP-59" value="1" style="text;html=1;align=center;verticalAlign=middle;resizable=0;points=[];autosize=1;strokeColor=none;fillColor=none;" parent="WIyWlLk6GJQsqaUBKTNV-1" vertex="1">
          <mxGeometry x="390" y="380" width="30" height="30" as="geometry" />
        </mxCell>
        <mxCell id="n-YLbALkxdfo_zPKDHEP-61" value="" style="endArrow=none;html=1;rounded=0;exitX=0.769;exitY=1.077;exitDx=0;exitDy=0;exitPerimeter=0;" parent="WIyWlLk6GJQsqaUBKTNV-1" source="dfQ5vr2KlKe60jf83hE6-27" edge="1">
          <mxGeometry width="50" height="50" relative="1" as="geometry">
            <mxPoint x="520" y="200" as="sourcePoint" />
            <mxPoint x="640" y="400" as="targetPoint" />
            <Array as="points">
              <mxPoint x="480" y="360" />
              <mxPoint x="640" y="360" />
            </Array>
          </mxGeometry>
        </mxCell>
        <mxCell id="n-YLbALkxdfo_zPKDHEP-62" value="1" style="text;html=1;align=center;verticalAlign=middle;resizable=0;points=[];autosize=1;strokeColor=none;fillColor=none;" parent="WIyWlLk6GJQsqaUBKTNV-1" vertex="1">
          <mxGeometry x="590" y="-190" width="30" height="30" as="geometry" />
        </mxCell>
        <mxCell id="n-YLbALkxdfo_zPKDHEP-63" value="1" style="text;html=1;align=center;verticalAlign=middle;resizable=0;points=[];autosize=1;strokeColor=none;fillColor=none;" parent="WIyWlLk6GJQsqaUBKTNV-1" vertex="1">
          <mxGeometry x="645" y="370" width="30" height="30" as="geometry" />
        </mxCell>
        <mxCell id="n-YLbALkxdfo_zPKDHEP-66" value="Entidades graficas" style="text;html=1;align=center;verticalAlign=middle;resizable=0;points=[];autosize=1;strokeColor=none;fillColor=none;" parent="WIyWlLk6GJQsqaUBKTNV-1" vertex="1">
          <mxGeometry x="60" y="288" width="120" height="30" as="geometry" />
        </mxCell>
        <mxCell id="n-YLbALkxdfo_zPKDHEP-86" value="PantallaEditarCurso" style="swimlane;fontStyle=1;align=center;verticalAlign=top;childLayout=stackLayout;horizontal=1;startSize=26;horizontalStack=0;resizeParent=1;resizeParentMax=0;resizeLast=0;collapsible=1;marginBottom=0;whiteSpace=wrap;html=1;" parent="WIyWlLk6GJQsqaUBKTNV-1" vertex="1">
          <mxGeometry x="620" y="740" width="230" height="242" as="geometry" />
        </mxCell>
        <mxCell id="n-YLbALkxdfo_zPKDHEP-87" value="-curso:Curso" style="text;strokeColor=none;fillColor=none;align=left;verticalAlign=top;spacingLeft=4;spacingRight=4;overflow=hidden;rotatable=0;points=[[0,0.5],[1,0.5]];portConstraint=eastwest;whiteSpace=wrap;html=1;" parent="n-YLbALkxdfo_zPKDHEP-86" vertex="1">
          <mxGeometry y="26" width="230" height="26" as="geometry" />
        </mxCell>
        <mxCell id="n-YLbALkxdfo_zPKDHEP-103" value="-btnGuardar: JButton" style="text;strokeColor=none;fillColor=none;align=left;verticalAlign=top;spacingLeft=4;spacingRight=4;overflow=hidden;rotatable=0;points=[[0,0.5],[1,0.5]];portConstraint=eastwest;whiteSpace=wrap;html=1;" parent="n-YLbALkxdfo_zPKDHEP-86" vertex="1">
          <mxGeometry y="52" width="230" height="26" as="geometry" />
        </mxCell>
        <mxCell id="n-YLbALkxdfo_zPKDHEP-104" value="-btnCancelar: JButton" style="text;strokeColor=none;fillColor=none;align=left;verticalAlign=top;spacingLeft=4;spacingRight=4;overflow=hidden;rotatable=0;points=[[0,0.5],[1,0.5]];portConstraint=eastwest;whiteSpace=wrap;html=1;" parent="n-YLbALkxdfo_zPKDHEP-86" vertex="1">
          <mxGeometry y="78" width="230" height="26" as="geometry" />
        </mxCell>
        <mxCell id="dfQ5vr2KlKe60jf83hE6-10" value="&lt;font style=&quot;vertical-align: inherit;&quot;&gt;&lt;font style=&quot;vertical-align: inherit;&quot;&gt;-txtCodigo :JTextFile&lt;/font&gt;&lt;/font&gt;" style="text;strokeColor=none;fillColor=none;align=left;verticalAlign=top;spacingLeft=4;spacingRight=4;overflow=hidden;rotatable=0;points=[[0,0.5],[1,0.5]];portConstraint=eastwest;whiteSpace=wrap;html=1;" parent="n-YLbALkxdfo_zPKDHEP-86" vertex="1">
          <mxGeometry y="104" width="230" height="26" as="geometry" />
        </mxCell>
        <mxCell id="dfQ5vr2KlKe60jf83hE6-11" value="&lt;font style=&quot;vertical-align: inherit;&quot;&gt;&lt;font style=&quot;vertical-align: inherit;&quot;&gt;&lt;font style=&quot;vertical-align: inherit;&quot;&gt;&lt;font style=&quot;vertical-align: inherit;&quot;&gt;-txtCredito : JTextFile&lt;/font&gt;&lt;/font&gt;&lt;/font&gt;&lt;/font&gt;" style="text;strokeColor=none;fillColor=none;align=left;verticalAlign=top;spacingLeft=4;spacingRight=4;overflow=hidden;rotatable=0;points=[[0,0.5],[1,0.5]];portConstraint=eastwest;whiteSpace=wrap;html=1;" parent="n-YLbALkxdfo_zPKDHEP-86" vertex="1">
          <mxGeometry y="130" width="230" height="26" as="geometry" />
        </mxCell>
        <mxCell id="n-YLbALkxdfo_zPKDHEP-105" value="-txtNombre : JTextFile" style="text;strokeColor=none;fillColor=none;align=left;verticalAlign=top;spacingLeft=4;spacingRight=4;overflow=hidden;rotatable=0;points=[[0,0.5],[1,0.5]];portConstraint=eastwest;whiteSpace=wrap;html=1;" parent="n-YLbALkxdfo_zPKDHEP-86" vertex="1">
          <mxGeometry y="156" width="230" height="26" as="geometry" />
        </mxCell>
        <mxCell id="n-YLbALkxdfo_zPKDHEP-88" value="" style="line;strokeWidth=1;fillColor=none;align=left;verticalAlign=middle;spacingTop=-1;spacingLeft=3;spacingRight=3;rotatable=0;labelPosition=right;points=[];portConstraint=eastwest;strokeColor=inherit;" parent="n-YLbALkxdfo_zPKDHEP-86" vertex="1">
          <mxGeometry y="182" width="230" height="8" as="geometry" />
        </mxCell>
        <mxCell id="n-YLbALkxdfo_zPKDHEP-90" value="+agregar(curso:Curso):void" style="text;strokeColor=none;fillColor=none;align=left;verticalAlign=top;spacingLeft=4;spacingRight=4;overflow=hidden;rotatable=0;points=[[0,0.5],[1,0.5]];portConstraint=eastwest;whiteSpace=wrap;html=1;" parent="n-YLbALkxdfo_zPKDHEP-86" vertex="1">
          <mxGeometry y="190" width="230" height="26" as="geometry" />
        </mxCell>
        <mxCell id="n-YLbALkxdfo_zPKDHEP-91" value="+eliminar(curso:Curso):void" style="text;strokeColor=none;fillColor=none;align=left;verticalAlign=top;spacingLeft=4;spacingRight=4;overflow=hidden;rotatable=0;points=[[0,0.5],[1,0.5]];portConstraint=eastwest;whiteSpace=wrap;html=1;" parent="n-YLbALkxdfo_zPKDHEP-86" vertex="1">
          <mxGeometry y="216" width="230" height="26" as="geometry" />
        </mxCell>
        <mxCell id="n-YLbALkxdfo_zPKDHEP-93" value="PantallaEditarProfesor" style="swimlane;fontStyle=1;align=center;verticalAlign=top;childLayout=stackLayout;horizontal=1;startSize=26;horizontalStack=0;resizeParent=1;resizeParentMax=0;resizeLast=0;collapsible=1;marginBottom=0;whiteSpace=wrap;html=1;" parent="WIyWlLk6GJQsqaUBKTNV-1" vertex="1">
          <mxGeometry x="800" y="410" width="230" height="190" as="geometry" />
        </mxCell>
        <mxCell id="n-YLbALkxdfo_zPKDHEP-94" value="- profesor:Profesor" style="text;strokeColor=none;fillColor=none;align=left;verticalAlign=top;spacingLeft=4;spacingRight=4;overflow=hidden;rotatable=0;points=[[0,0.5],[1,0.5]];portConstraint=eastwest;whiteSpace=wrap;html=1;" parent="n-YLbALkxdfo_zPKDHEP-93" vertex="1">
          <mxGeometry y="26" width="230" height="26" as="geometry" />
        </mxCell>
        <mxCell id="--uAvpTp4v0zV4zCWOfy-8" value="- txtNombre : JTextFile" style="text;strokeColor=none;fillColor=none;align=left;verticalAlign=top;spacingLeft=4;spacingRight=4;overflow=hidden;rotatable=0;points=[[0,0.5],[1,0.5]];portConstraint=eastwest;whiteSpace=wrap;html=1;" parent="n-YLbALkxdfo_zPKDHEP-93" vertex="1">
          <mxGeometry y="52" width="230" height="26" as="geometry" />
        </mxCell>
        <mxCell id="--uAvpTp4v0zV4zCWOfy-9" value="-btnGuardar : Jbutton" style="text;strokeColor=none;fillColor=none;align=left;verticalAlign=top;spacingLeft=4;spacingRight=4;overflow=hidden;rotatable=0;points=[[0,0.5],[1,0.5]];portConstraint=eastwest;whiteSpace=wrap;html=1;" parent="n-YLbALkxdfo_zPKDHEP-93" vertex="1">
          <mxGeometry y="78" width="230" height="26" as="geometry" />
        </mxCell>
        <mxCell id="--uAvpTp4v0zV4zCWOfy-10" value="-btnCancelar : Jbutton" style="text;strokeColor=none;fillColor=none;align=left;verticalAlign=top;spacingLeft=4;spacingRight=4;overflow=hidden;rotatable=0;points=[[0,0.5],[1,0.5]];portConstraint=eastwest;whiteSpace=wrap;html=1;" parent="n-YLbALkxdfo_zPKDHEP-93" vertex="1">
          <mxGeometry y="104" width="230" height="26" as="geometry" />
        </mxCell>
        <mxCell id="n-YLbALkxdfo_zPKDHEP-95" value="" style="line;strokeWidth=1;fillColor=none;align=left;verticalAlign=middle;spacingTop=-1;spacingLeft=3;spacingRight=3;rotatable=0;labelPosition=right;points=[];portConstraint=eastwest;strokeColor=inherit;" parent="n-YLbALkxdfo_zPKDHEP-93" vertex="1">
          <mxGeometry y="130" width="230" height="8" as="geometry" />
        </mxCell>
        <mxCell id="n-YLbALkxdfo_zPKDHEP-96" value="+agregar(profesor:Profesor):void" style="text;strokeColor=none;fillColor=none;align=left;verticalAlign=top;spacingLeft=4;spacingRight=4;overflow=hidden;rotatable=0;points=[[0,0.5],[1,0.5]];portConstraint=eastwest;whiteSpace=wrap;html=1;" parent="n-YLbALkxdfo_zPKDHEP-93" vertex="1">
          <mxGeometry y="138" width="230" height="26" as="geometry" />
        </mxCell>
        <mxCell id="n-YLbALkxdfo_zPKDHEP-97" value="+eliminar(profesor:Profesor):void" style="text;strokeColor=none;fillColor=none;align=left;verticalAlign=top;spacingLeft=4;spacingRight=4;overflow=hidden;rotatable=0;points=[[0,0.5],[1,0.5]];portConstraint=eastwest;whiteSpace=wrap;html=1;" parent="n-YLbALkxdfo_zPKDHEP-93" vertex="1">
          <mxGeometry y="164" width="230" height="26" as="geometry" />
        </mxCell>
        <mxCell id="n-YLbALkxdfo_zPKDHEP-98" value="PantallaEditarEstudiante" style="swimlane;fontStyle=1;align=center;verticalAlign=top;childLayout=stackLayout;horizontal=1;startSize=26;horizontalStack=0;resizeParent=1;resizeParentMax=0;resizeLast=0;collapsible=1;marginBottom=0;whiteSpace=wrap;html=1;" parent="WIyWlLk6GJQsqaUBKTNV-1" vertex="1">
          <mxGeometry x="-10" y="940" width="230" height="222" as="geometry" />
        </mxCell>
        <mxCell id="n-YLbALkxdfo_zPKDHEP-99" value="- estudiante: Estudiante" style="text;strokeColor=none;fillColor=none;align=left;verticalAlign=top;spacingLeft=4;spacingRight=4;overflow=hidden;rotatable=0;points=[[0,0.5],[1,0.5]];portConstraint=eastwest;whiteSpace=wrap;html=1;" parent="n-YLbALkxdfo_zPKDHEP-98" vertex="1">
          <mxGeometry y="26" width="230" height="32" as="geometry" />
        </mxCell>
        <mxCell id="--uAvpTp4v0zV4zCWOfy-1" value="- txtCodigo: textFile" style="text;strokeColor=none;fillColor=none;align=left;verticalAlign=top;spacingLeft=4;spacingRight=4;overflow=hidden;rotatable=0;points=[[0,0.5],[1,0.5]];portConstraint=eastwest;whiteSpace=wrap;html=1;" parent="n-YLbALkxdfo_zPKDHEP-98" vertex="1">
          <mxGeometry y="58" width="230" height="26" as="geometry" />
        </mxCell>
        <mxCell id="--uAvpTp4v0zV4zCWOfy-5" value="- txtNombre : textFile" style="text;strokeColor=none;fillColor=none;align=left;verticalAlign=top;spacingLeft=4;spacingRight=4;overflow=hidden;rotatable=0;points=[[0,0.5],[1,0.5]];portConstraint=eastwest;whiteSpace=wrap;html=1;" parent="n-YLbALkxdfo_zPKDHEP-98" vertex="1">
          <mxGeometry y="84" width="230" height="26" as="geometry" />
        </mxCell>
        <mxCell id="--uAvpTp4v0zV4zCWOfy-6" value="- btnGuardar : Jbutton" style="text;strokeColor=none;fillColor=none;align=left;verticalAlign=top;spacingLeft=4;spacingRight=4;overflow=hidden;rotatable=0;points=[[0,0.5],[1,0.5]];portConstraint=eastwest;whiteSpace=wrap;html=1;" parent="n-YLbALkxdfo_zPKDHEP-98" vertex="1">
          <mxGeometry y="110" width="230" height="26" as="geometry" />
        </mxCell>
        <mxCell id="--uAvpTp4v0zV4zCWOfy-7" value="- btnCancelar : Jbutton" style="text;strokeColor=none;fillColor=none;align=left;verticalAlign=top;spacingLeft=4;spacingRight=4;overflow=hidden;rotatable=0;points=[[0,0.5],[1,0.5]];portConstraint=eastwest;whiteSpace=wrap;html=1;" parent="n-YLbALkxdfo_zPKDHEP-98" vertex="1">
          <mxGeometry y="136" width="230" height="26" as="geometry" />
        </mxCell>
        <mxCell id="n-YLbALkxdfo_zPKDHEP-100" value="" style="line;strokeWidth=1;fillColor=none;align=left;verticalAlign=middle;spacingTop=-1;spacingLeft=3;spacingRight=3;rotatable=0;labelPosition=right;points=[];portConstraint=eastwest;strokeColor=inherit;" parent="n-YLbALkxdfo_zPKDHEP-98" vertex="1">
          <mxGeometry y="162" width="230" height="8" as="geometry" />
        </mxCell>
        <mxCell id="n-YLbALkxdfo_zPKDHEP-101" value="+agregar(estudiante:Estudiante):void" style="text;strokeColor=none;fillColor=none;align=left;verticalAlign=top;spacingLeft=4;spacingRight=4;overflow=hidden;rotatable=0;points=[[0,0.5],[1,0.5]];portConstraint=eastwest;whiteSpace=wrap;html=1;" parent="n-YLbALkxdfo_zPKDHEP-98" vertex="1">
          <mxGeometry y="170" width="230" height="26" as="geometry" />
        </mxCell>
        <mxCell id="n-YLbALkxdfo_zPKDHEP-102" value="+eliminar(estudiante:Estudiante):void" style="text;strokeColor=none;fillColor=none;align=left;verticalAlign=top;spacingLeft=4;spacingRight=4;overflow=hidden;rotatable=0;points=[[0,0.5],[1,0.5]];portConstraint=eastwest;whiteSpace=wrap;html=1;" parent="n-YLbALkxdfo_zPKDHEP-98" vertex="1">
          <mxGeometry y="196" width="230" height="26" as="geometry" />
        </mxCell>
        <mxCell id="n-YLbALkxdfo_zPKDHEP-106" value="" style="endArrow=none;html=1;rounded=0;entryX=0.007;entryY=1.005;entryDx=0;entryDy=0;entryPerimeter=0;exitX=0;exitY=0.5;exitDx=0;exitDy=0;" parent="WIyWlLk6GJQsqaUBKTNV-1" source="n-YLbALkxdfo_zPKDHEP-99" target="zkfFHV4jXpPFQw0GAbJ--7" edge="1">
          <mxGeometry width="50" height="50" relative="1" as="geometry">
            <mxPoint x="-320" y="910" as="sourcePoint" />
            <mxPoint x="-240" y="78" as="targetPoint" />
            <Array as="points">
              <mxPoint x="-330" y="900" />
              <mxPoint x="-320" y="80" />
              <mxPoint x="-320" y="-278" />
            </Array>
          </mxGeometry>
        </mxCell>
        <mxCell id="n-YLbALkxdfo_zPKDHEP-107" value="1" style="text;html=1;align=center;verticalAlign=middle;resizable=0;points=[];autosize=1;strokeColor=none;fillColor=none;" parent="WIyWlLk6GJQsqaUBKTNV-1" vertex="1">
          <mxGeometry x="10" y="-280" width="30" height="30" as="geometry" />
        </mxCell>
        <mxCell id="n-YLbALkxdfo_zPKDHEP-108" value="1" style="text;html=1;align=center;verticalAlign=middle;resizable=0;points=[];autosize=1;strokeColor=none;fillColor=none;" parent="WIyWlLk6GJQsqaUBKTNV-1" vertex="1">
          <mxGeometry x="-50" y="940" width="30" height="30" as="geometry" />
        </mxCell>
        <mxCell id="n-YLbALkxdfo_zPKDHEP-110" value="" style="endArrow=none;html=1;rounded=0;exitX=1;exitY=0.5;exitDx=0;exitDy=0;" parent="WIyWlLk6GJQsqaUBKTNV-1" source="n-YLbALkxdfo_zPKDHEP-40" target="n-YLbALkxdfo_zPKDHEP-93" edge="1">
          <mxGeometry width="50" height="50" relative="1" as="geometry">
            <mxPoint x="950" y="258" as="sourcePoint" />
            <mxPoint x="1000" y="208" as="targetPoint" />
            <Array as="points">
              <mxPoint x="920" y="200" />
            </Array>
          </mxGeometry>
        </mxCell>
        <mxCell id="n-YLbALkxdfo_zPKDHEP-111" value="1" style="text;html=1;align=center;verticalAlign=middle;resizable=0;points=[];autosize=1;strokeColor=none;fillColor=none;" parent="WIyWlLk6GJQsqaUBKTNV-1" vertex="1">
          <mxGeometry x="520" y="180" width="30" height="30" as="geometry" />
        </mxCell>
        <mxCell id="n-YLbALkxdfo_zPKDHEP-112" value="1" style="text;html=1;align=center;verticalAlign=middle;resizable=0;points=[];autosize=1;strokeColor=none;fillColor=none;" parent="WIyWlLk6GJQsqaUBKTNV-1" vertex="1">
          <mxGeometry x="920" y="370" width="30" height="30" as="geometry" />
        </mxCell>
        <mxCell id="n-YLbALkxdfo_zPKDHEP-113" value="" style="endArrow=none;html=1;rounded=0;entryX=0.992;entryY=0.03;entryDx=0;entryDy=0;entryPerimeter=0;" parent="WIyWlLk6GJQsqaUBKTNV-1" target="zkfFHV4jXpPFQw0GAbJ--2" edge="1">
          <mxGeometry width="50" height="50" relative="1" as="geometry">
            <mxPoint x="750" y="740" as="sourcePoint" />
            <mxPoint x="750" y="140" as="targetPoint" />
            <Array as="points">
              <mxPoint x="770" y="650" />
              <mxPoint x="1170" y="640" />
              <mxPoint x="1170" y="420" />
              <mxPoint x="1160" y="70" />
            </Array>
          </mxGeometry>
        </mxCell>
        <mxCell id="n-YLbALkxdfo_zPKDHEP-114" value="1" style="text;html=1;align=center;verticalAlign=middle;resizable=0;points=[];autosize=1;strokeColor=none;fillColor=none;" parent="WIyWlLk6GJQsqaUBKTNV-1" vertex="1">
          <mxGeometry x="770" y="700" width="30" height="30" as="geometry" />
        </mxCell>
        <mxCell id="n-YLbALkxdfo_zPKDHEP-115" value="1" style="text;html=1;align=center;verticalAlign=middle;resizable=0;points=[];autosize=1;strokeColor=none;fillColor=none;" parent="WIyWlLk6GJQsqaUBKTNV-1" vertex="1">
          <mxGeometry x="920" y="-320" width="30" height="30" as="geometry" />
        </mxCell>
        <mxCell id="n-YLbALkxdfo_zPKDHEP-60" value="1" style="text;html=1;align=center;verticalAlign=middle;resizable=0;points=[];autosize=1;strokeColor=none;fillColor=none;" parent="WIyWlLk6GJQsqaUBKTNV-1" vertex="1">
          <mxGeometry x="240" y="180" width="255" height="30" as="geometry" />
        </mxCell>
        <mxCell id="FOF1XSmfGurnGoWXkGHU-0" value="- nombre: String" style="text;align=left;verticalAlign=top;spacingLeft=4;spacingRight=4;overflow=hidden;rotatable=0;points=[[0,0.5],[1,0.5]];portConstraint=eastwest;" parent="WIyWlLk6GJQsqaUBKTNV-1" vertex="1">
          <mxGeometry x="-200" y="-300" width="240" height="26" as="geometry" />
        </mxCell>
      </root>
    </mxGraphModel>
  </diagram>
</mxfile>
